HIERARCHY
ROOT Hips
{
	OFFSET 0.00000 0.00000 0.00000
	CHANNELS 6 Xposition Yposition Zposition Zrotation Yrotation Xrotation 
	JOINT LHipJoint
	{
		OFFSET 0 0 0
		CHANNELS 3 Zrotation Yrotation Xrotation
		JOINT LeftHip
		{
			OFFSET 1.81638 -1.86202 0.89635
			CHANNELS 3 Zrotation Yrotation Xrotation
			JOINT LeftKnee
			{
				OFFSET 2.63464 -7.23861 0.00000
				CHANNELS 3 Zrotation Yrotation Xrotation
				JOINT LeftAnkle
				{
					OFFSET 2.45871 -6.75336 0.00000
					CHANNELS 3 Zrotation Yrotation Xrotation
					JOINT LeftToe
					{
						OFFSET 0.34235 -0.94059 2.20020
						CHANNELS 3 Zrotation Yrotation Xrotation
						End Site
						{
							OFFSET 0.00000 -0.00000 1.18611
						}
					}
				}
			}
		}
	}
	JOINT RHipJoint
	{
		OFFSET 0 0 0
		CHANNELS 3 Zrotation Yrotation Xrotation
		JOINT RightHip
		{
			OFFSET -1.84405 -1.86203 0.89635
			CHANNELS 3 Zrotation Yrotation Xrotation
			JOINT RightKnee
			{
				OFFSET -2.71067 -7.44751 0.00000
				CHANNELS 3 Zrotation Yrotation Xrotation
				JOINT RightAnkle
				{
					OFFSET -2.47159 -6.79060 0.00000
					CHANNELS 3 Zrotation Yrotation Xrotation
					JOINT RightToe
					{
						OFFSET -0.26223 -0.72048 2.36007
						CHANNELS 3 Zrotation Yrotation Xrotation
						End Site
						{
							OFFSET -0.00000 -0.00000 1.23343
						}
					}
				}
			}
		}
	}
	JOINT lowerback
	{
		OFFSET 0 0 0
		CHANNELS 3 Zrotation Yrotation Xrotation
		JOINT Chest
		{
			OFFSET 0.02089 1.99248 -0.22512
			CHANNELS 3 Zrotation Yrotation Xrotation
			JOINT Chest2
			{
				OFFSET 0.01476 2.01356 -0.03079
				CHANNELS 3 Zrotation Yrotation Xrotation
				JOINT lowerneck
				{
					OFFSET 0 0 0
					CHANNELS 3 Zrotation Yrotation Xrotation
					JOINT Neck
					{
						OFFSET 0.04846 1.65098 0.06663
						CHANNELS 3 Zrotation Yrotation Xrotation
						JOINT Head
						{
							OFFSET -0.06061 1.60634 -0.07565
							CHANNELS 3 Zrotation Yrotation Xrotation
							End Site
							{
								OFFSET -0.02954 1.73562 -0.03642
							}
						}
					}
				}
				JOINT LeftCollar
				{
					OFFSET 0 0 0
					CHANNELS 3 Zrotation Yrotation Xrotation
					JOINT LeftShoulder
					{
						OFFSET 3.45234 1.47051 -0.06993
CHANNELS 3 Zrotation Xrotation Yrotation
						JOINT LeftElbow
						{
OFFSET 0 -5.493130 0.000000
CHANNELS 3 Zrotation Xrotation Yrotation
							JOINT LeftWrist
							{
OFFSET 0 -3.290370 0.000000
CHANNELS 3 Zrotation Xrotation Yrotation
								JOINT lhand
								{
									OFFSET 0 0 0
CHANNELS 3 Zrotation Xrotation Yrotation
									JOINT LFingers
									{
OFFSET 0 -0.729660 0.000000
CHANNELS 3 Zrotation Xrotation Yrotation
										End Site
										{
OFFSET 0 -0.588270 0.000000
										}
									}
								}
								JOINT LThumb
								{
OFFSET 0 0.000000 0.000000
CHANNELS 3 Zrotation Xrotation Yrotation
									End Site
									{
OFFSET 0 -0.597250 0.597250
									}
								}
							}
						}
					}
				}
				JOINT RightCollar
				{
					OFFSET 0 0 0
					CHANNELS 3 Zrotation Yrotation Xrotation
					JOINT RightShoulder
					{
						OFFSET -3.41935 1.44327 0.20453
CHANNELS 3 Zrotation Xrotation Yrotation
						JOINT RightElbow
						{
OFFSET 0 -5.236840 0.000000
CHANNELS 3 Zrotation Xrotation Yrotation
							JOINT RightWrist
							{
OFFSET 0 -3.382510 0.000000
CHANNELS 3 Zrotation Xrotation Yrotation
								JOINT rhand
								{
									OFFSET 0 0 0
CHANNELS 3 Zrotation Xrotation Yrotation
									JOINT RFingers
									{
OFFSET 0 -0.691450 0.000000
CHANNELS 3 Zrotation Xrotation Yrotation
										End Site
										{
OFFSET 0 -0.557470 0.000000
										}
									}
								}
								JOINT RThumb
								{
OFFSET 0 0.000000 0.000000
CHANNELS 3 Zrotation Xrotation Yrotation
									End Site
									{
OFFSET 0 -0.565980 0.565980
									}
								}
							}
						}
					}
				}
			}
		}
	}
}
MOTION
Frames: 11
Frame Time: 0.008333333333333333
-37.466000 17.586700 -3.183200 -10.130600 70.869500 -9.068400 0.000000 0.000000 0.000000 -10.527700 -6.840500 -16.655300 2.723100 10.232600 29.733400 -0.367600 -16.651400 -7.578200 1.691300 8.191100 23.295900 0.000000 0.000000 0.000000 24.859700 14.524600 2.794200 -1.493000 -7.718900 21.863500 -1.678500 11.160900 -23.364600 -1.329600 -7.301900 20.613000 -0.911900 -1.038600 15.921700 3.067700 -1.099600 6.585700 3.927300 -0.477600 -1.844200 -3.322000 6.248800 -6.333600 -3.592500 8.636900 -1.732700 -0.361500 4.325200 0.521300 0.000000 0.000000 0.000000 5.273800 7.432000 -22.453900 31.811100 -42.396100 12.613300 -0.362300 -0.915100 -12.079600 0.000000 0.000000 0.000000 -7.125000 0.000000 0.000000 -24.095200 40.768300 -2.693500 0.000000 0.000000 0.000000 -19.107400 3.919600 46.540800 -31.948700 -42.506200 -12.706100 -7.236900 4.273200 16.153900 0.000000 0.000000 0.000000 7.125000 0.000000 -0.000000 19.042400 45.356200 -0.173800
-37.471173 17.585731 -3.178674 -10.283773 70.975675 -9.234441 0.000000 0.000000 0.000000 -10.473926 -6.810533 -16.730611 2.734187 10.251796 29.796011 -0.379932 -16.769445 -7.543176 1.663978 8.127923 23.103284 0.000000 0.000000 0.000000 24.917469 14.459914 2.814283 -1.485579 -7.700539 21.808075 -1.681014 11.110883 -23.376910 -1.328174 -7.298184 20.601757 -0.815574 -1.052161 15.912327 3.077456 -1.101739 6.599272 3.882657 -0.476985 -1.826854 -2.721199 6.419037 -5.652054 -4.347607 8.778389 -2.395932 -0.716533 4.413768 0.269048 0.000000 0.000000 0.000000 5.282905 7.423199 -22.499831 31.731987 -42.332475 12.559949 -0.428506 -0.926187 -12.044537 0.000000 0.000000 0.000000 -7.125000 0.000000 0.000000 -24.137605 40.730080 -2.723348 0.000000 0.000000 0.000000 -19.125286 3.879330 46.394760 -31.793608 -42.381948 -12.601501 -7.175773 4.377353 16.260398 0.000000 0.000000 0.000000 7.125000 0.000000 0.000000 19.135805 45.449833 -0.220634
-37.476065 17.584449 -3.174491 -10.367628 71.132788 -9.325103 0.000000 0.000000 0.000000 -10.460188 -6.783548 -16.838357 2.749583 10.278177 29.882210 -0.400599 -16.947777 -7.466275 1.648051 8.090950 22.990687 0.000000 0.000000 0.000000 24.919048 14.310790 2.816394 -1.475369 -7.675174 21.731633 -1.678935 11.101016 -23.361431 -1.326227 -7.293159 20.586763 -0.738293 -1.082765 15.866987 3.084287 -1.129707 6.618301 3.849218 -0.489906 -1.782517 -1.647504 6.709631 -4.556722 -5.730711 9.028795 -3.449549 -1.366286 4.571999 -0.110980 0.000000 0.000000 0.000000 5.294407 7.420406 -22.575338 31.674848 -42.286416 12.521513 -0.478564 -0.948922 -12.030202 0.000000 0.000000 0.000000 -7.125000 0.000000 0.000000 -24.173767 40.712375 -2.739455 0.000000 0.000000 0.000000 -19.158842 3.827719 46.207165 -31.627472 -42.248106 -12.489623 -7.035725 4.411180 16.240050 0.000000 0.000000 0.000000 7.125000 0.000000 0.000000 19.252686 45.413800 -0.204298
-37.479037 17.579596 -3.168334 -10.559844 71.225207 -9.526232 0.000000 0.000000 0.000000 -10.387255 -6.623608 -16.986579 2.773721 10.319479 30.017627 -0.407862 -17.159820 -7.598974 1.562236 7.887495 22.373025 0.000000 0.000000 0.000000 24.985597 14.185043 2.893785 -1.459808 -7.636391 21.615010 -1.669382 11.048635 -23.291339 -1.289616 -7.195625 20.296223 -0.633523 -1.089218 15.815191 3.102607 -1.122622 6.615722 3.806383 -0.484963 -1.760497 -1.729850 6.616650 -4.681794 -5.473328 8.923807 -3.167604 -1.263738 4.509122 -0.022341 0.000000 0.000000 0.000000 5.315922 7.459443 -22.717965 31.581070 -42.210588 12.458425 -0.458088 -0.892501 -12.063184 0.000000 0.000000 0.000000 -7.125000 0.000000 0.000000 -24.168606 40.744425 -2.718182 0.000000 0.000000 0.000000 -19.165181 3.820067 46.031019 -31.409575 -42.071314 -12.343454 -7.100823 4.503504 16.210992 0.000000 0.000000 0.000000 7.125000 0.000000 0.000000 19.184225 45.394018 -0.193800
-37.482153 17.574457 -3.162957 -10.777658 71.330565 -9.754882 0.000000 0.000000 0.000000 -10.308127 -6.510057 -17.142435 2.805434 10.373245 30.193988 -0.421226 -17.400601 -7.686017 1.507222 7.753844 21.968780 0.000000 0.000000 0.000000 25.054212 14.033243 2.991095 -1.438903 -7.583718 21.456754 -1.660077 11.002015 -23.223738 -1.262860 -7.123375 20.081526 -0.517804 -1.105579 15.772620 3.122046 -1.126766 6.614059 3.760678 -0.485288 -1.741858 -1.493184 6.631802 -4.460012 -5.692287 8.920260 -3.275273 -1.379964 4.510857 -0.069906 0.000000 0.000000 0.000000 5.332053 7.492123 -22.841014 31.496552 -42.142080 12.401667 -0.478194 -0.865020 -12.090707 0.000000 0.000000 0.000000 -7.125000 0.000000 0.000000 -24.194839 40.767602 -2.706686 0.000000 0.000000 0.000000 -19.185220 3.806399 45.851482 -31.208645 -41.907019 -12.209000 -7.083622 4.590704 16.218531 0.000000 0.000000 0.000000 7.125000 0.000000 0.000000 19.202341 45.399116 -0.196539
-37.484380 17.568587 -3.157352 -11.061544 71.420460 -10.056396 0.000000 0.000000 0.000000 -10.202545 -6.376181 -17.294617 2.839414 10.430470 30.382215 -0.438023 -17.665337 -7.760328 1.462941 7.643935 21.637831 0.000000 0.000000 0.000000 25.149336 13.873203 3.116620 -1.414891 -7.522967 21.274302 -1.648463 10.960450 -23.140493 -1.234022 -7.044616 19.847605 -0.384070 -1.123092 15.732797 3.148884 -1.129498 6.608352 3.712434 -0.484665 -1.729259 -1.399811 6.609957 -4.383645 -5.734297 8.885376 -3.236631 -1.410519 4.492072 -0.064812 0.000000 0.000000 0.000000 5.343121 7.532980 -22.970196 31.402732 -42.065786 12.338807 -0.501122 -0.830142 -12.130880 0.000000 0.000000 0.000000 -7.125000 0.000000 0.000000 -24.227845 40.802132 -2.688642 0.000000 0.000000 0.000000 -19.211353 3.798127 45.673304 -31.001010 -41.735980 -12.070497 -7.070261 4.680560 16.237295 0.000000 0.000000 0.000000 7.125000 0.000000 0.000000 19.221036 45.415276 -0.204688
-37.485833 17.563330 -3.151623 -11.387331 71.499864 -10.408506 0.000000 0.000000 0.000000 -10.082822 -6.239893 -17.424786 2.871753 10.484440 30.560156 -0.457969 -17.929345 -7.799013 1.433858 7.571072 21.418589 0.000000 0.000000 0.000000 25.258531 13.706122 3.251370 -1.389769 -7.458654 21.081442 -1.635160 10.942375 -23.047782 -1.212435 -6.985049 19.671042 -0.240675 -1.143413 15.693618 3.181119 -1.134296 6.603112 3.664785 -0.484926 -1.716412 -1.370140 6.574907 -4.380537 -5.699110 8.841363 -3.123795 -1.402615 4.466050 -0.031892 0.000000 0.000000 0.000000 5.346815 7.573334 -23.096819 31.299361 -41.981415 12.269632 -0.524235 -0.790722 -12.167323 0.000000 0.000000 0.000000 -7.125000 0.000000 0.000000 -24.259809 40.833253 -2.672623 0.000000 0.000000 0.000000 -19.245104 3.788497 45.497419 -30.790192 -41.561107 -11.930441 -7.059964 4.772281 16.263261 0.000000 0.000000 0.000000 7.125000 0.000000 0.000000 19.239787 45.438713 -0.216406
-37.486328 17.559404 -3.146122 -11.716198 71.569854 -10.780872 0.000000 0.000000 0.000000 -9.966770 -6.114287 -17.505866 2.897558 10.527326 30.701950 -0.480087 -18.167268 -7.787646 1.423223 7.544193 21.337851 0.000000 0.000000 0.000000 25.367293 13.532901 3.385420 -1.366043 -7.397432 20.898280 -1.620919 10.962032 -22.952266 -1.200832 -6.952782 19.575547 -0.100144 -1.165883 15.656645 3.215268 -1.142285 6.602826 3.621420 -0.486710 -1.699211 -1.342722 6.544316 -4.387569 -5.671139 8.803766 -3.006385 -1.396053 4.443096 0.004564 0.000000 0.000000 0.000000 5.343043 7.607160 -23.217396 31.184570 -41.887285 12.192861 -0.547872 -0.749457 -12.186093 0.000000 0.000000 0.000000 -7.125000 0.000000 0.000000 -24.285975 40.848211 -2.666342 0.000000 0.000000 0.000000 -19.286570 3.775023 45.319162 -30.579187 -41.384658 -11.790680 -7.042979 4.863800 16.285306 0.000000 0.000000 0.000000 7.125000 0.000000 0.000000 19.263029 45.457538 -0.225976
-37.486099 17.557147 -3.140614 -12.016584 71.637257 -11.140464 0.000000 0.000000 0.000000 -9.867546 -6.012491 -17.533867 2.915781 10.557476 30.801619 -0.500113 -18.359922 -7.757077 1.419096 7.533691 21.306347 0.000000 0.000000 0.000000 25.464380 13.359487 3.509464 -1.345211 -7.342922 20.735417 -1.606295 11.010083 -22.856382 -1.199325 -6.948399 19.562547 0.024382 -1.189295 15.623036 3.249842 -1.153823 6.604954 3.588091 -0.490533 -1.680639 -1.290894 6.522158 -4.387822 -5.665694 8.776323 -2.886211 -1.400486 4.425040 0.043202 0.000000 0.000000 0.000000 5.329694 7.637936 -23.330977 31.061675 -41.786144 12.110908 -0.567360 -0.705237 -12.182200 0.000000 0.000000 0.000000 -7.125000 0.000000 0.000000 -24.300695 40.842799 -2.671669 0.000000 0.000000 0.000000 -19.332568 3.761079 45.135427 -30.369785 -41.208225 -11.652527 -7.029104 4.954285 16.299170 0.000000 0.000000 0.000000 7.125000 0.000000 0.000000 19.280476 45.469067 -0.231959
-37.484767 17.555578 -3.135178 -12.247967 71.701758 -11.447745 0.000000 0.000000 0.000000 -9.799350 -5.944539 -17.506464 2.926921 10.575765 30.862207 -0.514443 -18.502930 -7.741921 1.414268 7.521303 21.269409 0.000000 0.000000 0.000000 25.538882 13.188388 3.632906 -1.327669 -7.296794 20.597771 -1.592679 11.071470 -22.769187 -1.200100 -6.950667 19.569401 0.122601 -1.210064 15.593558 3.280063 -1.165832 6.605823 3.565469 -0.495077 -1.664923 -1.235907 6.501280 -4.386178 -5.667966 8.750370 -2.769814 -1.407988 4.407846 0.080962 0.000000 0.000000 0.000000 5.310903 7.668796 -23.443686 30.931017 -41.678103 12.023956 -0.588020 -0.656873 -12.155960 0.000000 0.000000 0.000000 -7.125000 0.000000 0.000000 -24.308477 40.816960 -2.689364 0.000000 0.000000 0.000000 -19.378472 3.758510 44.936471 -30.164270 -41.033755 -11.517339 -7.013681 5.050544 16.298769 0.000000 0.000000 0.000000 7.125000 0.000000 0.000000 19.293887 45.466725 -0.230957
-37.482287 17.554178 -3.129743 -12.389970 71.768369 -11.681610 0.000000 0.000000 0.000000 -9.769074 -5.916034 -17.428043 2.932297 10.584572 30.891383 -0.521712 -18.601503 -7.764110 1.403172 7.493089 21.184628 0.000000 0.000000 0.000000 25.587546 13.024909 3.766637 -1.313141 -7.258467 20.483377 -1.581738 11.121068 -22.699403 -1.196221 -6.939815 19.537260 0.188412 -1.227910 15.572100 3.303345 -1.178959 6.601528 3.554397 -0.500634 -1.658303 -1.187373 6.483106 -4.381097 -5.665790 8.727909 -2.658671 -1.413321 4.392758 0.116135 0.000000 0.000000 0.000000 5.287112 7.703588 -23.555028 30.794493 -41.564714 11.933303 -0.611663 -0.604279 -12.121695 0.000000 0.000000 0.000000 -7.125000 0.000000 0.000000 -24.315822 40.783464 -2.711936 0.000000 0.000000 0.000000 -19.421474 3.774089 44.721480 -29.964400 -40.862801 -11.386362 -6.997208 5.142113 16.282271 0.000000 0.000000 0.000000 7.125000 0.000000 0.000000 19.302504 45.449163 -0.222366
